<svg width="484" height="390" viewBox="0 0 484 390" fill="none" xmlns="http://www.w3.org/2000/svg">
<g clip-path="url(#clip0_48_989)">
<path d="M21.7954 382.247L122.533 380.945L83.4966 370.205L87.8965 360.898L112.864 357.472L106.468 355.989L89.2779 355.222L21.7954 382.247Z" fill="#172B4D"/>
<path d="M77.5105 334.716L74.4407 334.767L48.9108 325.255L77.7663 341.619L82.4732 337.733L77.5105 334.716Z" fill="#36B37E"/>
<path d="M77.5107 334.715L127.189 325.612L102.376 349.699L77.5107 334.715Z" fill="#172B4D"/>
<path d="M48.9108 325.255L98.4869 353.432L87.3336 355.478L60.013 357.472L48.9108 325.255Z" fill="white" stroke="#36B37E" stroke-width="0.633632" stroke-miterlimit="10" stroke-linejoin="round"/>
<path d="M98.4871 353.432L127.189 325.612L106.468 355.989L98.4871 353.432Z" fill="white" stroke="#36B37E" stroke-width="0.633632" stroke-miterlimit="10" stroke-linejoin="round"/>
<path d="M77.7665 341.619L90.6083 331.033L91.9385 332.107L87.8967 347.398L77.7665 341.619Z" fill="white" stroke="#36B37E" stroke-width="0.633632" stroke-miterlimit="10" stroke-linejoin="round"/>
<path d="M91.9383 332.107L103.552 348.574L98.4871 353.432L87.8965 347.398L91.9383 332.107Z" fill="white" stroke="#36B37E" stroke-width="0.633632" stroke-miterlimit="10" stroke-linejoin="round"/>
<path d="M106.469 355.989L87.3339 355.477L98.4872 353.432L106.469 355.989Z" fill="white" stroke="#36B37E" stroke-width="0.633632" stroke-miterlimit="10" stroke-linejoin="round"/>
<path d="M40.3668 348.113L36.2738 348.829L0.255699 341.567L42.2086 357.216L47.683 351.028L40.3668 348.113Z" fill="white" stroke="#36B37E" stroke-width="0.633632" stroke-miterlimit="10" stroke-linejoin="round"/>
<path d="M40.3669 348.113L104.627 325.612L76.6408 362.688L40.3669 348.113Z" fill="#C5E9DA" stroke="#36B37E" stroke-width="0.633632" stroke-miterlimit="10"/>
<path d="M0.255699 341.567L72.3431 368.415L57.8643 373.529L21.8461 381.865L0.255699 341.567Z" fill="white" stroke="#36B37E" stroke-width="0.633632" stroke-miterlimit="10" stroke-linejoin="round"/>
<path d="M72.3431 368.416L104.626 325.612L83.4964 370.205L72.3431 368.416Z" fill="white" stroke="#36B37E" stroke-width="0.633632" stroke-miterlimit="10" stroke-linejoin="round"/>
<path d="M42.2086 357.217L57.0967 340.494L59.0921 341.568L56.9433 362.688L42.2086 357.217Z" fill="#36B37E"/>
<path d="M59.0921 341.567L77.9709 360.949L72.343 368.415L56.9433 362.688L59.0921 341.567Z" fill="white" stroke="#36B37E" stroke-width="0.633632" stroke-miterlimit="10" stroke-linejoin="round"/>
<path d="M83.4964 370.205L57.8642 373.529L72.3431 368.415L83.4964 370.205Z" fill="white" stroke="#36B37E" stroke-width="0.633632" stroke-miterlimit="10" stroke-linejoin="round"/>
<mask id="mask0_48_989" style="mask-type:alpha" maskUnits="userSpaceOnUse" x="-1" y="341" width="74" height="41">
<path d="M0.166443 341.759L72.2077 368.309L57.9414 373.223L21.9232 381.558L0.166443 341.759Z" fill="white" stroke="#36B37E" stroke-width="0.633632" stroke-miterlimit="10" stroke-linejoin="round"/>
</mask>
<g mask="url(#mask0_48_989)">
<path d="M43.5389 369.489L35.7111 369.745L32.0786 363.455L24.5577 363.762L28.0879 370.001L20.6694 370.205L24.0973 376.496L31.6693 376.342L39.3948 376.138L43.1808 382.734L51.2644 382.632L55.255 389.383H63.6456L59.5526 382.53L55.5108 375.831L47.3249 375.984L43.5389 369.489Z" fill="#C5E9DA"/>
<path d="M39.753 363.097L36.0693 356.858L28.4974 357.268L32.0787 363.455L39.753 363.097Z" fill="#C5E9DA"/>
<path d="M51.5203 369.234L47.6832 362.739L39.753 363.097L43.539 369.49L51.5203 369.234Z" fill="#36B37E"/>
<path d="M55.7667 362.433L51.8272 355.989L43.8459 356.45L47.6831 362.74L55.7667 362.433Z" fill="#172B4D"/>
<path d="M59.7574 368.927L51.5203 369.234L55.511 375.831L63.8504 375.626L72.4457 375.421L68.1992 368.671L64.0551 362.074L55.7668 362.432L59.7574 368.927Z" fill="#36B37E"/>
<path d="M17.2416 364.069L24.5578 363.762L21.1299 357.676L28.4972 357.267L25.0182 351.182L17.7532 351.642L10.6417 352.102L13.916 358.034L6.90683 358.443L-6.10352e-05 358.801L3.12083 364.682L10.13 364.375L13.4044 370.461L20.6694 370.205L17.2416 364.069Z" fill="#36B37E"/>
<path d="M6.29282 370.717L9.56719 376.802L16.7299 376.649L13.4044 370.461L6.29282 370.717Z" fill="#36B37E"/>
<path d="M0.613831 346.835L3.73472 352.562L10.6416 352.102L7.46956 346.323L0.613831 346.835Z" fill="#36B37E"/>
<path d="M36.0693 356.858L43.8459 356.449L40.1111 350.261L36.4786 344.176L28.9577 344.738L21.5904 345.25L25.0182 351.182L32.4879 350.722L36.0693 356.858Z" fill="#36B37E"/>
<path d="M56.0225 349.238L47.9901 349.75L51.8272 355.989L60.0132 355.58L56.0225 349.238Z" fill="#36B37E"/>
<path d="M72.5991 361.665L68.3526 355.119L60.0132 355.579L64.055 362.074L72.5991 361.665Z" fill="#36B37E"/>
<path d="M16.73 376.65L20.1579 382.991L27.6276 382.888L24.0974 376.496L16.73 376.65Z" fill="#36B37E"/>
</g>
</g>
<defs>
<clipPath id="clip0_48_989">
<rect width="127.445" height="64.3839" fill="white" transform="translate(0 325)"/>
</clipPath>
</defs>
</svg>
